<?xml version="1.0" ?><svg viewBox="0 0 512 512" xmlns="http://www.w3.org/2000/svg"><title/><g id="no_plastic_bottle"><path d="M403.63,122.37a206.81,206.81,0,0,0-116.13-59v-1h15.28a7,7,0,0,0,7-7v-27A19.37,19.37,0,0,0,290.43,8.93H222.57a19.37,19.37,0,0,0-19.35,19.34V55.32a7,7,0,0,0,7,7h14v1A208.51,208.51,0,0,0,166.18,457.5v6.6A40,40,0,0,0,206.1,504h99.8a40,40,0,0,0,39.92-39.92v-6.68a208.51,208.51,0,0,0,57.81-335ZM331.82,316.88l-17.55-11.46h17.55Zm0-93.18H293.56a7,7,0,0,0,0,14h38.26v53.72H293.56a5.32,5.32,0,0,0-.69,0L210.52,237.7h50.36a7,7,0,0,0,0-14H189.07l-8.89-5.8V184.59A56.17,56.17,0,0,1,191.45,151L237.62,89.8h38.16l45.16,61.26a55.49,55.49,0,0,1,10.88,33.13ZM238.26,75.8V62.32H273.5V75.8Zm-21-27.48v-20a5.35,5.35,0,0,1,5.35-5.34h67.86a5.35,5.35,0,0,1,5.35,5.34V48.32H217.22Zm-98.46,86.05a190.74,190.74,0,0,1,105.5-54.84V82.8c0,.54,0,1,0,1.52l-43.94,58.2a70.17,70.17,0,0,0-14.1,42.07v24.17l-70.52-46A194.33,194.33,0,0,1,118.76,134.37ZM119.48,405A192.58,192.58,0,0,1,88.32,174.67l77.86,50.82V439.62A193,193,0,0,1,119.48,405ZM305.9,490h-5.08l9.68-16.17a7,7,0,0,0-12-7.19l-14,23.36H264.87V470.26a7,7,0,0,0-14,0V490H231.24l-14-23.36a7,7,0,1,0-12,7.19L214.92,490H206.1a25.94,25.94,0,0,1-25.92-25.92V305.42h80.7a7,7,0,0,0,0-14h-80.7V237.7h4.7l146.94,95.92V464.1A25.94,25.94,0,0,1,305.9,490Zm87.76-86.43a192.88,192.88,0,0,1-47.84,35.93V342.76l64.11,41.84A193.14,193.14,0,0,1,393.66,403.59Zm24.28-30.5L345.82,326V184.19a69.34,69.34,0,0,0-13.61-41.43L287.5,82.11V79.53A192.41,192.41,0,0,1,448.26,269.3v.54A191.36,191.36,0,0,1,417.94,373.09Z"/><path d="M203.31,376.16a7,7,0,0,0-7,7v41.35a7,7,0,0,0,14,0V383.16A7,7,0,0,0,203.31,376.16Z"/><path d="M203.31,324.3a7,7,0,0,0-7,7v20.31a7,7,0,0,0,14,0V331.3A7,7,0,0,0,203.31,324.3Z"/></g></svg>