<?xml version="1.0" ?><svg data-name="Слой 1" id="Слой_1" viewBox="0 0 32 32" xmlns="http://www.w3.org/2000/svg"><path d="M8.57,26.7406l5.3388.03-.0039.5406a.4707.4707,0,0,0,.3116.4448.46.46,0,0,0,.1591.0283.4726.4726,0,0,0,.3643-.1724l3.24-3.9565a.47.47,0,0,0,.003-.5918l-3.1954-3.9927a.4706.4706,0,0,0-.8378.2915l-.003.5406-4.5332-.0259,2.5723-4.52a.4706.4706,0,0,0-.5-.6943l-3.334.6592-1.22-3.1074a.4692.4692,0,0,0-.4043-.2969.4752.4752,0,0,0-.4424.2363L3.1165,17.3729a.4707.4707,0,0,0,.003.4692l5.0468,8.6651A.4712.4712,0,0,0,8.57,26.7406Zm5.8418-5.8946h.0029a.469.469,0,0,0,.4043-.23L17.01,23.3543l-2.2217,2.7134a.4366.4366,0,0,0-.0732-.0952.467.467,0,0,0-.3311-.14l-5.54-.0312L5.93,20.7982l2.6738.0156Zm-7.9952-7.37L7.42,16.0321a.469.469,0,0,0,.5283.29l2.7109-.5361L8.3338,19.8714,5.38,19.8548,4.0687,17.6029Z"/><path d="M18.5374,13.1756a.454.454,0,0,0,.4375.2241.47.47,0,0,0,.3975-.2876l1.3467-3.2192,3.0166.3848a.474.474,0,0,0,.4541-.21.4683.4683,0,0,0,.0068-.5L21.07,4.4407a.47.47,0,0,0-.4014-.225h-.0107l-3.1314.0683a.48.48,0,0,0-.1064.0025l-6.7876.1484a.47.47,0,0,0-.3994.24L7.6214,9.33,7.15,9.0657a.47.47,0,0,0-.6669.5845l1.8916,4.7505a.4682.4682,0,0,0,.4365.2969.5293.5293,0,0,0,.0791-.0069l5.041-.8613a.47.47,0,0,0,.1514-.874l-.4717-.2647,2.2178-3.9545ZM22.8841,9.221l-2.4013-.3066A.4653.4653,0,0,0,19.99,9.2l-1.1289,2.7L16.3319,7.7547l1.4023-2.5342,2.6734-.0586ZM12.5169,12.9984a.5477.5477,0,0,0,.0469.11l-3.457.59L7.81,10.4407a.47.47,0,0,0,.4014-.24l2.71-4.8315,5.7256-.125-1.292,2.3339a.4747.4747,0,0,0-.0561.1807L12.56,12.6409A.4708.4708,0,0,0,12.5169,12.9984Z"/><path d="M26.2406,12.6458l.47-.2676a.47.47,0,0,0-.1563-.873l-5.0468-.8276a.4694.4694,0,0,0-.5147.2929l-1.86,4.7632a.4706.4706,0,0,0,.6709.58l.4707-.2681,2.2451,3.94-5.2.0322a.4707.4707,0,0,0-.3613.7686l2.1132,2.5791-1.956,2.6093a.47.47,0,0,0,.376.753h.0029l6.0039-.0372a.4693.4693,0,0,0,.4053-.2368l4.98-8.7041a.4673.4673,0,0,0,0-.4663Zm-3.02,13.1055-4.7851.03,1.6084-2.1465a.4708.4708,0,0,0-.0117-.58L18.31,20.9525l4.7437-.03,1.4619,2.5664Zm1.8365-3.21-1.3238-2.3232-2.8759-5.0469a.4684.4684,0,0,0-.4034-.2373l1.2764-3.2666,3.4609.5674a.418.418,0,0,0-.0459.1108.4654.4654,0,0,0,.045.357l2.7421,4.8134Z"/></svg>